<svg width="22" height="22" viewBox="0 0 22 22" fill="none" xmlns="http://www.w3.org/2000/svg">
<path fill-rule="evenodd" clip-rule="evenodd" d="M3.5 3.5C2.67157 3.5 2 4.17157 2 5V18.5C2 19.3284 2.67157 20 3.5 20H18.5C19.3284 20 20 19.3284 20 18.5V5C20 4.17157 19.3284 3.5 18.5 3.5H3.5ZM0.5 5C0.5 3.34315 1.84315 2 3.5 2H18.5C20.1569 2 21.5 3.34315 21.5 5V18.5C21.5 20.1569 20.1569 21.5 18.5 21.5H3.5C1.84315 21.5 0.5 20.1569 0.5 18.5V5Z" fill="#145DFC"/>
<path fill-rule="evenodd" clip-rule="evenodd" d="M5 0.5C5.41421 0.5 5.75 0.835786 5.75 1.25V2.75C5.75 3.16421 5.41421 3.5 5 3.5C4.58579 3.5 4.25 3.16421 4.25 2.75V1.25C4.25 0.835786 4.58579 0.5 5 0.5Z" fill="#145DFC"/>
<path fill-rule="evenodd" clip-rule="evenodd" d="M17 0.5C17.4142 0.5 17.75 0.835786 17.75 1.25V2.75C17.75 3.16421 17.4142 3.5 17 3.5C16.5858 3.5 16.25 3.16421 16.25 2.75V1.25C16.25 0.835786 16.5858 0.5 17 0.5Z" fill="#145DFC"/>
<path fill-rule="evenodd" clip-rule="evenodd" d="M0.5 6.5C0.5 6.08579 0.835786 5.75 1.25 5.75H20.75C21.1642 5.75 21.5 6.08579 21.5 6.5C21.5 6.91421 21.1642 7.25 20.75 7.25H1.25C0.835786 7.25 0.5 6.91421 0.5 6.5Z" fill="#145DFC"/>
</svg>
