<svg width="20" height="20" viewBox="0 0 20 20" fill="none" xmlns="http://www.w3.org/2000/svg">
<path fill-rule="evenodd" clip-rule="evenodd" d="M0.25 10C0.25 4.61704 4.61704 0.25 10 0.25C15.383 0.25 19.75 4.61704 19.75 10C19.75 15.383 15.383 19.75 10 19.75C4.61704 19.75 0.25 15.383 0.25 10ZM10 1.75C5.44546 1.75 1.75 5.44546 1.75 10C1.75 14.5545 5.44546 18.25 10 18.25C14.5545 18.25 18.25 14.5545 18.25 10C18.25 5.44546 14.5545 1.75 10 1.75Z" fill="#E7000A"/>
<path fill-rule="evenodd" clip-rule="evenodd" d="M10 3.25C10.4142 3.25 10.75 3.58579 10.75 4V10H14.5C14.9142 10 15.25 10.3358 15.25 10.75C15.25 11.1642 14.9142 11.5 14.5 11.5H10C9.58579 11.5 9.25 11.1642 9.25 10.75V4C9.25 3.58579 9.58579 3.25 10 3.25Z" fill="#E7000A"/>
</svg>
